PathFileType	4	(X/Y/Z)	/Users/niels/Desktop/University/Third Semester/Perception and Action/Exam/Gymnastics Motion Tracking/Code for Gym Tracking/Analyzed Data/Webcam_Backflip/id2001_2_trajectory_Sports2D/id2001_2_trajectory_Sports2D_px_person00.trc
DataRate	CameraRate	NumFrames	NumMarkers	Units	OrigDataRate	OrigDataStartFrame	OrigNumFrames
29.887218045112782	29.887218045112782	7	22	m	29.887218045112782	66	266
Frame#	Time	Hip			RHip			RKnee			RAnkle			RBigToe			RSmallToe			RHeel			LHip			LKnee			LAnkle			LBigToe			LSmallToe			LHeel			Neck			Head			Nose			RShoulder			RElbow			RWrist			LShoulder			LElbow			LWrist		
		X1	Y1	Z1	X2	Y2	Z2	X3	Y3	Z3	X4	Y4	Z4	X5	Y5	Z5	X6	Y6	Z6	X7	Y7	Z7	X8	Y8	Z8	X9	Y9	Z9	X10	Y10	Z10	X11	Y11	Z11	X12	Y12	Z12	X13	Y13	Z13	X14	Y14	Z14	X15	Y15	Z15	X16	Y16	Z16	X17	Y17	Z17	X18	Y18	Z18	X19	Y19	Z19	X20	Y20	Z20	X21	Y21	Z21	X22	Y22	Z22
66	2.2083018867924533	0.9835594681816762	-0.7137155004282836	0.0	0.9493188419743065	-0.731232713350424	0.0	0.9668167166320688	-1.0603817252265064	0.0	0.6144374999999972	-1.0131591796875017	0.0	0.5780625000000004	-1.0279619140625	0.0	0.5727187499999999	-1.0405371093750002	0.0	0.5727187500000002	-0.9774267578124999	0.0	1.0187424142696964	-0.7312551843387979	0.0	1.0243160846678845	-1.0574036639066742	0.0	1.0509774159228364	-1.0958514403620419	0.0	0.6878120117187501	-1.0321572265625	0.0	0.5439375	-1.0099912109375	0.0	0.6144374999999973	-0.9972509765625021	0.0	0.9806208352244661	-0.23795812229998153	0.0	1.0562953332133482	-0.04670304382186753	0.0	1.060473599833576	-0.15549215319022447	0.0	0.9203180411050768	-0.2528163838063131	0.0	0.7642773899520213	-0.3868737204510144	0.0	0.9308471944266618	-0.5849633821927662	0.0	1.02038621240135	-0.3032296807242562	0.0	0.9735046496458165	-0.42548641631094236	0.0	1.014176671921071	-0.603800815952414	0.0
67	2.2417610062893085	0.9836990458130601	-0.7135486979662736	0.0	0.9488051872050669	-0.7314587563913568	0.0	0.9666753893254135	-1.0602887460934667	0.0	0.6144374999999986	-1.013159179687501	0.0	0.5780625000000004	-1.0279619140625	0.0	0.5727187499999999	-1.0405371093750002	0.0	0.5727187500000002	-0.9774267578124999	0.0	1.0194076969796158	-0.7314708470022192	0.0	1.025828229361115	-1.0573186011524909	0.0	1.050977415021208	-1.0958514402822286	0.0	0.6878120117187501	-1.0321572265625	0.0	0.5439375	-1.0099912109375	0.0	0.6144374999999977	-0.9972509765625016	0.0	0.9807245536669814	-0.23825006556587347	0.0	1.0547575096224564	-0.04718915466968751	0.0	1.0600668216134708	-0.1557463637515368	0.0	0.9192212326256453	-0.2533918215522915	0.0	0.7636460769133868	-0.38766630195153806	0.0	0.9305105985379416	-0.5849437868526298	0.0	1.0209991057147685	-0.303355055730372	0.0	0.9791677523521388	-0.4244331808050067	0.0	1.014553972717777	-0.604124307008433	0.0
68	2.2752201257861637	0.9836629039983528	-0.7136797164371514	0.0	0.9483364798473197	-0.7318958713777608	0.0	0.9667166210014572	-1.0602628706726518	0.0	0.6144375000000031	-1.0131591796874988	0.0	0.5780625000000003	-1.0279619140625003	0.0	0.5727187499999999	-1.0405371093750002	0.0	0.57271875	-0.9774267578124999	0.0	1.0198156117973214	-0.7318974496553302	0.0	1.0265829126189927	-1.0573375857576919	0.0	1.0509774141253374	-1.0958514401852673	0.0	0.6878120117187501	-1.0321572265625	0.0	0.5439375	-1.0099912109375	0.0	0.6144375000000004	-0.9972509765624994	0.0	0.9807798784406088	-0.23838803785097593	0.0	1.05340193989382	-0.047606290936782536	0.0	1.0597349293532925	-0.1560591970912592	0.0	0.9184732929588942	-0.2538357255330115	0.0	0.763350691726624	-0.38811131321993203	0.0	0.9303751621078828	-0.5850470952662444	0.0	1.0214884453978486	-0.3034659944893063	0.0	0.9851058339779075	-0.42363240183600154	0.0	1.0146792646860316	-0.6045666661439013	0.0
69	2.3086792452830194	0.9834275979102463	-0.7140293998333697	0.0	0.9480145092883654	-0.7323443961487682	0.0	0.9668066111742072	-1.0602192042757927	0.0	0.6144375000000118	-1.013159179687494	0.0	0.5780625	-1.0279619140625007	0.0	0.5727187499999999	-1.0405371093750002	0.0	0.5727187499999998	-0.9774267578124998	0.0	1.0198455638507191	-0.7323384365522679	0.0	1.0263050788406458	-1.0573451906134104	0.0	1.0509774138289874	-1.0958514401101422	0.0	0.6878120117187501	-1.0321572265625	0.0	0.5439375	-1.0099912109375	0.0	0.6144375000000065	-0.9972509765624943	0.0	0.9807251814021453	-0.23840638435013514	0.0	1.0524569367851757	-0.0478693619566652	0.0	1.059452628813487	-0.1562475269960183	0.0	0.9180946854973361	-0.2540802371312506	0.0	0.7632932964950564	-0.38819638586612065	0.0	0.9303890326510021	-0.5852210679575091	0.0	1.0217780564541596	-0.3036509119638484	0.0	0.989055630668248	-0.42318946049438816	0.0	1.0145015187141802	-0.6048879980211366	0.0
70	2.3421383647798746	0.9830767863471923	-0.7144447318110193	0.0	0.947921977412609	-0.7326294100100729	0.0	0.9668235732743495	-1.0601333979731669	0.0	0.6144375000000252	-1.013159179687486	0.0	0.5780624999999996	-1.0279619140625014	0.0	0.5727187499999999	-1.0405371093750002	0.0	0.5727187499999994	-0.9774267578124995	0.0	1.0195653198111836	-0.7326214527680092	0.0	1.0251009500945196	-1.0573397075973479	0.0	1.0509774151786624	-1.0958514401370192	0.0	0.6878120117187501	-1.0321572265625	0.0	0.5439375	-1.0099912109375	0.0	0.6144375000000171	-0.9972509765624855	0.0	0.9804710691602331	-0.2383792434780717	0.0	1.0520369309639879	-0.04795978912003873	0.0	1.0592087786704836	-0.1562163533451392	0.0	0.917961185060997	-0.2541240247330197	0.0	0.7633324801822174	-0.38805274732421857	0.0	0.9305290674172473	-0.5854211177060404	0.0	1.021842734610545	-0.30392465223368775	0.0	0.990120888648387	-0.42335145623071335	0.0	1.0142196208792864	-0.6049544106711457	0.0
71	2.37559748427673	0.9826978494384345	-0.7147538625487265	0.0	0.9480641546223406	-0.7326687185105837	0.0	0.9667465803925933	-1.0600889449819677	0.0	0.6144375000000409	-1.0131591796874757	0.0	0.5780624999999989	-1.027961914062502	0.0	0.5727187499999999	-1.0405371093750002	0.0	0.5727187499999987	-0.9774267578124991	0.0	1.0191103400868848	-0.732667432131231	0.0	1.0233303639862708	-1.057440583309566	0.0	1.0509774196335928	-1.0958514403934252	0.0	0.6878120117187501	-1.0321572265625	0.0	0.5439375	-1.0099912109375	0.0	0.6144375000000314	-0.9972509765624739	0.0	0.9799826443904136	-0.23838046630796592	0.0	1.0521020803860557	-0.04794150761457147	0.0	1.0590045469141003	-0.15602112424823034	0.0	0.9179188473267317	-0.2540164326458496	0.0	0.7633467656288354	-0.38786606489172787	0.0	0.9307796633416199	-0.585631905818558	0.0	1.0216943331565715	-0.3042205102801568	0.0	0.9890578999727239	-0.42403799172330037	0.0	1.0141291293016017	-0.6047411346612792	0.0
72	2.4090566037735854	0.982394718522007	-0.7147905788995023	0.0	0.9483433990334613	-0.7324257542206855	0.0	0.9665842015168494	-1.060165341059459	0.0	0.6144375000000523	-1.0131591796874668	0.0	0.5780624999999981	-1.0279619140625023	0.0	0.5727187499999999	-1.0405371093750002	0.0	0.5727187499999978	-0.9774267578124985	0.0	1.0186799232959916	-0.7324435744574532	0.0	1.0215727786164812	-1.057701478318597	0.0	1.0509774286990219	-1.0958514410382634	0.0	0.6878120117187501	-1.0321572265625	0.0	0.5439375	-1.0099912109375	0.0	0.6144375000000457	-0.9972509765624626	0.0	0.9793438286474266	-0.23842004529745484	0.0	1.0524656400068817	-0.047906417037018416	0.0	1.058826096652732	-0.15580649882096406	0.0	0.9178664401252971	-0.2538413261893672	0.0	0.7632837225299218	-0.3877369134593071	0.0	0.9310969827513492	-0.5858293320538014	0.0	1.0214435045260095	-0.3044015196818168	0.0	0.9879507200973912	-0.42461343524983647	0.0	1.0144024166103809	-0.604318913442522	0.0
